REM DIRINDEX 1\2\6,1\2\7,1\2\8,1\2\9,1\3\10,1\3\11,1\4\12,1\4\13,1\4\14,1\5\15,1\5\16,1\5\17
REM DIRNAME folder01,folder02,folder03,folder04,folder05,folder06,folder07,folder08,folder09,folder10,folder11,folder12,folder13,folder14,folder15,folder16,folder17
TITLE ""
FILE "1400_2_sec09_0885_0900.mp3" MP3
  TRACK 01 AUDIO
    TITLE "0:"
    INDEX 01 00:00:00
  TRACK 02 AUDIO
    TITLE "13:cjc029_3372"
    INDEX 01 00:00:19
  TRACK 03 AUDIO
    TITLE "0:"
    INDEX 01 00:01:24
  TRACK 04 AUDIO
    TITLE "14:cjc029_3373"
    INDEX 01 00:01:28
  TRACK 05 AUDIO
    TITLE "0:"
    INDEX 01 00:04:13
  TRACK 06 AUDIO
    TITLE "13:cjc029_3374"
    INDEX 01 00:04:68
  TRACK 07 AUDIO
    TITLE "0:"
    INDEX 01 00:05:73
  TRACK 08 AUDIO
    TITLE "14:cjc029_3375"
    INDEX 01 00:06:02
  TRACK 09 AUDIO
    TITLE "0:"
    INDEX 01 00:10:16
  TRACK 10 AUDIO
    TITLE "13:cjc029_3376"
    INDEX 01 00:10:72
  TRACK 11 AUDIO
    TITLE "0:"
    INDEX 01 00:12:16
  TRACK 12 AUDIO
    TITLE "14:cjc029_3377"
    INDEX 01 00:12:22
  TRACK 13 AUDIO
    TITLE "0:"
    INDEX 01 00:14:66
  TRACK 14 AUDIO
    TITLE "13:cjc029_3378"
    INDEX 01 00:15:46
  TRACK 15 AUDIO
    TITLE "0:"
    INDEX 01 00:16:57
  TRACK 16 AUDIO
    TITLE "14:cjc029_3379"
    INDEX 01 00:16:61
  TRACK 17 AUDIO
    TITLE "0:"
    INDEX 01 00:18:01
  TRACK 18 AUDIO
    TITLE "13:cjc029_3380"
    INDEX 01 00:18:58
  TRACK 19 AUDIO
    TITLE "0:"
    INDEX 01 00:20:04
  TRACK 20 AUDIO
    TITLE "14:cjc029_3381"
    INDEX 01 00:20:08
  TRACK 21 AUDIO
    TITLE "0:"
    INDEX 01 00:21:51
  TRACK 22 AUDIO
    TITLE "13:cjc029_3382"
    INDEX 01 00:22:34
  TRACK 23 AUDIO
    TITLE "0:"
    INDEX 01 00:23:48
  TRACK 24 AUDIO
    TITLE "14:cjc029_3383"
    INDEX 01 00:23:51
  TRACK 25 AUDIO
    TITLE "0:"
    INDEX 01 00:25:72
  TRACK 26 AUDIO
    TITLE "13:cjc029_3384"
    INDEX 01 00:26:52
  TRACK 27 AUDIO
    TITLE "0:"
    INDEX 01 00:27:49
  TRACK 28 AUDIO
    TITLE "14:cjc029_3385"
    INDEX 01 00:27:55
  TRACK 29 AUDIO
    TITLE "0:"
    INDEX 01 00:29:07
  TRACK 30 AUDIO
    TITLE "13:cjc029_3386"
    INDEX 01 00:29:62
  TRACK 31 AUDIO
    TITLE "0:"
    INDEX 01 00:30:67
  TRACK 32 AUDIO
    TITLE "14:cjc029_3387"
    INDEX 01 00:30:71
  TRACK 33 AUDIO
    TITLE "0:"
    INDEX 01 00:32:09
  TRACK 34 AUDIO
    TITLE "13:cjc029_3388"
    INDEX 01 00:32:66
  TRACK 35 AUDIO
    TITLE "0:"
    INDEX 01 00:34:10
  TRACK 36 AUDIO
    TITLE "14:cjc029_3389"
    INDEX 01 00:34:16
  TRACK 37 AUDIO
    TITLE "0:"
    INDEX 01 00:35:43
  TRACK 38 AUDIO
    TITLE "13:cjc029_3390"
    INDEX 01 00:36:23
  TRACK 39 AUDIO
    TITLE "0:"
    INDEX 01 00:37:42
  TRACK 40 AUDIO
    TITLE "14:cjc029_3391"
    INDEX 01 00:37:48
  TRACK 41 AUDIO
    TITLE "0:"
    INDEX 01 00:39:19
  TRACK 42 AUDIO
    TITLE "13:cjc029_3392"
    INDEX 01 00:39:74
  TRACK 43 AUDIO
    TITLE "0:"
    INDEX 01 00:41:06
  TRACK 44 AUDIO
    TITLE "14:cjc029_3393"
    INDEX 01 00:41:12
  TRACK 45 AUDIO
    TITLE "0:"
    INDEX 01 00:42:35
  TRACK 46 AUDIO
    TITLE "13:cjc029_3394"
    INDEX 01 00:43:17
  TRACK 47 AUDIO
    TITLE "0:"
    INDEX 01 00:44:28
  TRACK 48 AUDIO
    TITLE "14:cjc029_3395"
    INDEX 01 00:44:34
  TRACK 49 AUDIO
    TITLE "0:"
    INDEX 01 00:47:15
  TRACK 50 AUDIO
    TITLE "13:cjc029_3396"
    INDEX 01 00:47:74
  TRACK 51 AUDIO
    TITLE "0:"
    INDEX 01 00:49:10
  TRACK 52 AUDIO
    TITLE "14:cjc029_3397"
    INDEX 01 00:49:16
  TRACK 53 AUDIO
    TITLE "0:"
    INDEX 01 00:52:22
  TRACK 54 AUDIO
    TITLE "13:cjc029_3398"
    INDEX 01 00:53:02
  TRACK 55 AUDIO
    TITLE "0:"
    INDEX 01 00:54:13
  TRACK 56 AUDIO
    TITLE "14:cjc029_3399"
    INDEX 01 00:54:19
  TRACK 57 AUDIO
    TITLE "0:"
    INDEX 01 00:56:61
  TRACK 58 AUDIO
    TITLE "13:cjc029_3400"
    INDEX 01 00:57:41
  TRACK 59 AUDIO
    TITLE "0:"
    INDEX 01 00:58:48
  TRACK 60 AUDIO
    TITLE "14:cjc029_3401"
    INDEX 01 00:58:54
  TRACK 61 AUDIO
    TITLE "0:"
    INDEX 01 01:02:71
  TRACK 62 AUDIO
    TITLE "13:cjc029_3402"
    INDEX 01 01:03:53
  TRACK 63 AUDIO
    TITLE "0:"
    INDEX 01 01:04:64
  TRACK 64 AUDIO
    TITLE "14:cjc029_3403"
    INDEX 01 01:04:66
  TRACK 65 AUDIO
    TITLE "0:"
    INDEX 01 01:08:58
